Adsworth-24PT G XT1.ufo
<glyph name="exclam" format="2">
  <advance width="740"/>
  <unicode hex="0021"/>
  <outline>
    <contour>
      <point x="292" y="462" type="line"/>
      <point x="292" y="1500" type="line"/>
      <point x="448" y="1500" type="line"/>
      <point x="448" y="462" type="line"/>
    </contour>
    <contour>
      <point x="368" y="-16.0" type="line" smooth="yes"/>
      <point x="422.0" y="-16.0"/>
      <point x="484" y="46"/>
      <point x="484" y="97" type="qcurve" smooth="yes"/>
      <point x="484" y="105" type="line" smooth="yes"/>
      <point x="484" y="156"/>
      <point x="423" y="219"/>
      <point x="368" y="219" type="qcurve" smooth="yes"/>
      <point x="366" y="219" type="line" smooth="yes"/>
      <point x="315" y="219"/>
      <point x="256" y="156"/>
      <point x="256" y="105" type="qcurve" smooth="yes"/>
      <point x="256" y="97" type="line" smooth="yes"/>
      <point x="256" y="45"/>
      <point x="314" y="-16.0"/>
      <point x="366" y="-16.0" type="qcurve" smooth="yes"/>
    </contour>
  </outline>
</glyph>
<glyph name="numbersign" format="2">
  <advance width="1622"/>
  <unicode hex="0023"/>
  <outline>
    <contour>
      <point x="302" y="0" type="line"/>
      <point x="562" y="1500" type="line"/>
      <point x="712" y="1500" type="line"/>
      <point x="452" y="0" type="line"/>
    </contour>
    <contour>
      <point x="1496" y="440" type="line"/>
      <point x="86" y="440" type="line"/>
      <point x="86" y="580" type="line"/>
      <point x="1496" y="580" type="line"/>
    </contour>
    <contour>
      <point x="1536" y="895" type="line"/>
      <point x="126" y="895" type="line"/>
      <point x="126" y="1035" type="line"/>
      <point x="1536" y="1035" type="line"/>
    </contour>
    <contour>
      <point x="902" y="0" type="line"/>
      <point x="1162" y="1500" type="line"/>
      <point x="1312" y="1500" type="line"/>
      <point x="1052" y="0" type="line"/>
    </contour>
  </outline>
</glyph>
<glyph name="ampersand" format="2">
  <advance width="1534"/>
  <unicode hex="0026"/>
  <outline>
    <contour>
      <point x="945" y="742" type="line"/>
      <point x="1530" y="920" type="line"/>
      <point x="1572" y="779" type="line"/>
      <point x="989" y="600" type="line"/>
    </contour>
    <contour>
      <point x="759" y="721" type="line"/>
      <point x="581" y="721" type="line" smooth="yes"/>
      <point x="377" y="721"/>
      <point x="197" y="569"/>
      <point x="197" y="447" type="qcurve" smooth="yes"/>
      <point x="197" y="437" type="line" smooth="yes"/>
      <point x="197" y="304"/>
      <point x="426.0" y="122"/>
      <point x="694" y="122" type="qcurve" smooth="yes"/>
      <point x="703" y="122" type="line" smooth="yes"/>
      <point x="971" y="122.0"/>
      <point x="1242.0" y="342.0"/>
      <point x="1242" y="502" type="qcurve" smooth="yes"/>
      <point x="1242.0" y="514.0" type="line" smooth="yes"/>
      <point x="1242" y="562"/>
      <point x="1218" y="659"/>
      <point x="1214" y="677" type="qcurve"/>
      <point x="1364" y="727" type="line"/>
      <point x="1372" y="700"/>
      <point x="1403" y="571"/>
      <point x="1403.0" y="513.0" type="qcurve" smooth="yes"/>
      <point x="1403" y="491" type="line" smooth="yes"/>
      <point x="1403.0" y="286"/>
      <point x="1042" y="-25"/>
      <point x="683" y="-25" type="qcurve" smooth="yes"/>
      <point x="663" y="-25.0" type="line" smooth="yes"/>
      <point x="362.0" y="-25"/>
      <point x="36" y="222.0"/>
      <point x="36.0" y="405" type="qcurve" smooth="yes"/>
      <point x="36" y="424" type="line" smooth="yes"/>
      <point x="36" y="575.0"/>
      <point x="195" y="762"/>
      <point x="342" y="806" type="qcurve"/>
      <point x="267" y="855"/>
      <point x="173" y="1013"/>
      <point x="173" y="1112" type="qcurve" smooth="yes"/>
      <point x="173" y="1138" type="line" smooth="yes"/>
      <point x="173" y="1305"/>
      <point x="421" y="1523"/>
      <point x="587" y="1523" type="qcurve" smooth="yes"/>
      <point x="593" y="1523" type="line" smooth="yes"/>
      <point x="773" y="1523"/>
      <point x="1016.0" y="1326"/>
      <point x="1016" y="1149" type="qcurve" smooth="yes"/>
      <point x="1016" y="1123" type="line"/>
      <point x="849" y="1123" type="line"/>
      <point x="849" y="1142" type="line" smooth="yes"/>
      <point x="849" y="1246"/>
      <point x="716" y="1373"/>
      <point x="592" y="1373" type="qcurve" smooth="yes"/>
      <point x="588" y="1373" type="line" smooth="yes"/>
      <point x="473" y="1373"/>
      <point x="329" y="1236"/>
      <point x="329" y="1128" type="qcurve" smooth="yes"/>
      <point x="329" y="1111" type="line" smooth="yes"/>
      <point x="329" y="1002"/>
      <point x="465" y="869"/>
      <point x="582" y="869" type="qcurve" smooth="yes"/>
      <point x="785" y="869" type="line"/>
    </contour>
  </outline>
</glyph>
<glyph name="quotesingle" format="2">
  <advance width="633"/>
  <unicode hex="0027"/>
  <outline>
    <contour>
      <point x="240" y="962" type="line"/>
      <point x="240" y="1500" type="line"/>
      <point x="393" y="1500" type="line"/>
      <point x="393" y="962" type="line"/>
    </contour>
  </outline>
</glyph>
<glyph name="parenleft" format="2">
  <advance width="984"/>
  <unicode hex="0028"/>
  <outline>
    <contour>
      <point x="804" y="-311" type="line"/>
      <point x="102" y="49.0"/>
      <point x="102" y="1144.0"/>
      <point x="799" y="1525" type="qcurve"/>
      <point x="920" y="1403" type="line"/>
      <point x="252" y="1029.0"/>
      <point x="297" y="136.0"/>
      <point x="928" y="-190" type="qcurve"/>
    </contour>
  </outline>
</glyph>
<glyph name="parenright" format="2">
  <advance width="984"/>
  <unicode hex="0029"/>
  <outline>
    <contour>
      <point x="180" y="-311" type="qcurve"/>
      <point x="56" y="-190" type="line"/>
      <point x="687" y="136"/>
      <point x="732" y="1029"/>
      <point x="64" y="1403" type="qcurve"/>
      <point x="185" y="1525" type="line"/>
      <point x="882" y="1144"/>
      <point x="882" y="49"/>
    </contour>
  </outline>
</glyph>
<glyph name="asterisk" format="2">
  <advance width="1383"/>
  <unicode hex="002A"/>
  <outline>
    <contour>
      <point x="711" y="900" type="line"/>
      <point x="380" y="491" type="line"/>
      <point x="265" y="576" type="line"/>
      <point x="603" y="980" type="line"/>
      <point x="105" y="1113" type="line"/>
      <point x="151" y="1253" type="line"/>
      <point x="643" y="1108" type="line"/>
      <point x="639" y="1596" type="line"/>
      <point x="783" y="1596" type="line"/>
      <point x="778" y="1108" type="line"/>
      <point x="1232" y="1253" type="line"/>
      <point x="1278" y="1114" type="line"/>
      <point x="819" y="980" type="line"/>
      <point x="1156" y="584" type="line"/>
      <point x="1040" y="499" type="line"/>
    </contour>
  </outline>
</glyph>
<glyph name="plus" format="2">
  <advance width="1920"/>
  <unicode hex="002B"/>
  <outline>
    <contour>
      <point x="1640" y="690" type="line"/>
      <point x="280" y="690" type="line"/>
      <point x="280" y="835" type="line"/>
      <point x="1640" y="835" type="line"/>
    </contour>
    <contour>
      <point x="1032.0" y="1392.0" type="line"/>
      <point x="1032.0" y="132.0" type="line"/>
      <point x="887.0" y="132.0" type="line"/>
      <point x="887.0" y="1392.0" type="line"/>
    </contour>
  </outline>
</glyph>
<glyph name="comma" format="2">
  <advance width="847"/>
  <unicode hex="002C"/>
  <outline>
    <contour>
      <point x="187" y="-151" type="line"/>
      <point x="384" y="160" type="line" smooth="yes"/>
      <point x="407" y="196"/>
      <point x="453" y="243.0"/>
      <point x="485" y="243" type="qcurve" smooth="yes"/>
      <point x="492" y="243.0" type="line" smooth="yes"/>
      <point x="535" y="243.0"/>
      <point x="594.0" y="187.0"/>
      <point x="594" y="149.0" type="qcurve" smooth="yes"/>
      <point x="594.0" y="140" type="line" smooth="yes"/>
      <point x="594.0" y="98.0"/>
      <point x="363" y="-135"/>
      <point x="280" y="-218" type="qcurve"/>
    </contour>
  </outline>
</glyph>
<glyph name="slash" format="2">
  <advance width="960"/>
  <unicode hex="002F"/>
  <outline>
    <contour>
      <point x="-120" y="0" type="line"/>
      <point x="900" y="1500" type="line"/>
      <point x="1080" y="1500" type="line"/>
      <point x="60" y="0" type="line"/>
    </contour>
  </outline>
</glyph>
<glyph name="five" format="2">
  <advance width="1332"/>
  <unicode hex="0035"/>
  <outline>
    <contour>
      <point x="695" y="978" type="line" smooth="yes"/>
      <point x="966.0" y="978.0"/>
      <point x="1302.0" y="736.0"/>
      <point x="1302" y="510" type="qcurve" smooth="yes"/>
      <point x="1302" y="480" type="line" smooth="yes"/>
      <point x="1302.0" y="259"/>
      <point x="947.0" y="-25.0"/>
      <point x="660" y="-25" type="qcurve" smooth="yes"/>
      <point x="633" y="-25" type="line" smooth="yes"/>
      <point x="359" y="-25"/>
      <point x="26" y="195"/>
      <point x="12" y="352" type="qcurve" smooth="yes"/>
      <point x="7" y="408" type="line"/>
      <point x="166" y="410" type="line"/>
      <point x="168" y="386" type="line" smooth="yes"/>
      <point x="174" y="284"/>
      <point x="428.0" y="125"/>
      <point x="638" y="125" type="qcurve" smooth="yes"/>
      <point x="666" y="125" type="line" smooth="yes"/>
      <point x="898.0" y="125.0"/>
      <point x="1129.0" y="312.0"/>
      <point x="1129" y="481" type="qcurve" smooth="yes"/>
      <point x="1129" y="500" type="line" smooth="yes"/>
      <point x="1129.0" y="660.0"/>
      <point x="889.0" y="832.0"/>
      <point x="675" y="832" type="qcurve" smooth="yes"/>
      <point x="652" y="832" type="line" smooth="yes"/>
      <point x="509" y="832.0"/>
      <point x="312" y="772"/>
      <point x="266" y="741" type="qcurve"/>
      <point x="92" y="742" type="line"/>
      <point x="132" y="1500" type="line"/>
      <point x="1172" y="1500" type="line"/>
      <point x="1172" y="1355" type="line"/>
      <point x="279" y="1355" type="line"/>
      <point x="250" y="878" type="line"/>
      <point x="292" y="908"/>
      <point x="524.0" y="978.0"/>
      <point x="667" y="978.0" type="qcurve" smooth="yes"/>
    </contour>
  </outline>
</glyph>
<glyph name="semicolon" format="2">
  <advance width="847"/>
  <unicode hex="003B"/>
  <outline>
    <contour>
      <point x="445" y="684.0" type="line" smooth="yes"/>
      <point x="501" y="684.0"/>
      <point x="563" y="748"/>
      <point x="563" y="799" type="qcurve" smooth="yes"/>
      <point x="563" y="807" type="line" smooth="yes"/>
      <point x="563" y="859"/>
      <point x="502" y="924"/>
      <point x="445" y="924" type="qcurve" smooth="yes"/>
      <point x="443" y="924" type="line" smooth="yes"/>
      <point x="390" y="924"/>
      <point x="331" y="859"/>
      <point x="331" y="807" type="qcurve" smooth="yes"/>
      <point x="331" y="799" type="line" smooth="yes"/>
      <point x="331" y="747"/>
      <point x="389" y="684.0"/>
      <point x="443" y="684.0" type="qcurve" smooth="yes"/>
    </contour>
    <contour>
      <point x="157" y="-151" type="line"/>
      <point x="354" y="160" type="line" smooth="yes"/>
      <point x="377" y="196"/>
      <point x="423" y="243.0"/>
      <point x="455" y="243" type="qcurve" smooth="yes"/>
      <point x="462" y="243.0" type="line" smooth="yes"/>
      <point x="505.0" y="243.0"/>
      <point x="564.0" y="187"/>
      <point x="564" y="149.0" type="qcurve" smooth="yes"/>
      <point x="564.0" y="140" type="line" smooth="yes"/>
      <point x="564.0" y="98.0"/>
      <point x="333" y="-135"/>
      <point x="250" y="-218" type="qcurve"/>
    </contour>
  </outline>
</glyph>
<glyph name="equal" format="2">
  <advance width="1920"/>
  <unicode hex="003D"/>
  <outline>
    <contour>
      <point x="1640" y="460" type="line"/>
      <point x="280" y="460" type="line"/>
      <point x="280" y="603" type="line"/>
      <point x="1640" y="603" type="line"/>
    </contour>
    <contour>
      <point x="1640" y="850" type="line"/>
      <point x="280" y="850" type="line"/>
      <point x="280" y="995" type="line"/>
      <point x="1640" y="995" type="line"/>
    </contour>
  </outline>
</glyph>
<glyph name="greater" format="2">
  <advance width="1920"/>
  <unicode hex="003E"/>
  <outline>
    <contour>
      <point x="1602.0" y="836.0" type="line"/>
      <point x="1602.0" y="676.0" type="line"/>
      <point x="352.0" y="200.0" type="line"/>
      <point x="352.0" y="372.0" type="line"/>
      <point x="1385.0" y="759.0" type="line"/>
      <point x="352.0" y="1145.0" type="line"/>
      <point x="352.0" y="1316.0" type="line"/>
    </contour>
  </outline>
</glyph>
<glyph name="B" format="2">
  <advance width="1496"/>
  <unicode hex="0042"/>
  <outline>
    <contour>
      <point x="226" y="0" type="line"/>
      <point x="226" y="1500" type="line"/>
      <point x="386" y="1500" type="line"/>
      <point x="386" y="0" type="line"/>
    </contour>
    <contour>
      <point x="945" y="836" type="line"/>
      <point x="1155" y="836"/>
      <point x="1428" y="628"/>
      <point x="1428" y="442" type="qcurve" smooth="yes"/>
      <point x="1428" y="415" type="line" smooth="yes"/>
      <point x="1428" y="235"/>
      <point x="1152" y="0"/>
      <point x="949" y="0" type="qcurve" smooth="yes"/>
      <point x="306" y="0" type="line"/>
      <point x="306" y="148" type="line"/>
      <point x="945" y="148" type="line" smooth="yes"/>
      <point x="1078" y="148"/>
      <point x="1261" y="298"/>
      <point x="1261" y="430" type="qcurve" smooth="yes"/>
      <point x="1261" y="449" type="line" smooth="yes"/>
      <point x="1261" y="578"/>
      <point x="1070" y="719"/>
      <point x="935" y="719" type="qcurve" smooth="yes"/>
      <point x="306" y="719" type="line"/>
      <point x="306" y="869" type="line"/>
      <point x="867" y="869" type="line" smooth="yes"/>
      <point x="1022" y="869"/>
      <point x="1159" y="983"/>
      <point x="1159" y="1102" type="qcurve" smooth="yes"/>
      <point x="1159" y="1118" type="line" smooth="yes"/>
      <point x="1159" y="1222"/>
      <point x="1012" y="1352"/>
      <point x="877" y="1352" type="qcurve" smooth="yes"/>
      <point x="306" y="1352" type="line"/>
      <point x="306" y="1500" type="line"/>
      <point x="904" y="1500" type="line" smooth="yes"/>
      <point x="1091" y="1500"/>
      <point x="1318" y="1289"/>
      <point x="1318" y="1121" type="qcurve" smooth="yes"/>
      <point x="1318" y="1105" type="line" smooth="yes"/>
      <point x="1318" y="937"/>
      <point x="1096" y="721"/>
      <point x="917" y="721" type="qcurve"/>
    </contour>
  </outline>
</glyph>
<glyph name="G" format="2">
  <advance width="1996"/>
  <unicode hex="0047"/>
  <outline>
    <contour>
      <point x="1057" y="125.0" type="line" smooth="yes"/>
      <point x="1393.0" y="125.0"/>
      <point x="1766" y="343"/>
      <point x="1780" y="548" type="qcurve" smooth="yes"/>
      <point x="1782" y="580.0" type="line"/>
      <point x="1054" y="579.0" type="line"/>
      <point x="1054" y="728.0" type="line"/>
      <point x="1948" y="729.0" type="line"/>
      <point x="1946.0" y="628" type="line" smooth="yes"/>
      <point x="1939" y="298"/>
      <point x="1467" y="-24"/>
      <point x="1059" y="-24.0" type="qcurve" smooth="yes"/>
      <point x="1047" y="-24.0" type="line" smooth="yes"/>
      <point x="593" y="-24"/>
      <point x="90" y="369.0"/>
      <point x="90" y="741.0" type="qcurve" smooth="yes"/>
      <point x="90" y="754.0" type="line" smooth="yes"/>
      <point x="90" y="1126"/>
      <point x="625.0" y="1524.0"/>
      <point x="1039" y="1524.0" type="qcurve" smooth="yes"/>
      <point x="1053" y="1524.0" type="line" smooth="yes"/>
      <point x="1441.0" y="1524.0"/>
      <point x="1877" y="1251"/>
      <point x="1899" y="1018.0" type="qcurve" smooth="yes"/>
      <point x="1903" y="986.0" type="line"/>
      <point x="1739" y="986.0" type="line"/>
      <point x="1737" y="1013.0" type="line" smooth="yes"/>
      <point x="1724" y="1185"/>
      <point x="1372.0" y="1372.0"/>
      <point x="1058" y="1372.0" type="qcurve" smooth="yes"/>
      <point x="1044" y="1372.0" type="line" smooth="yes"/>
      <point x="686.0" y="1372.0"/>
      <point x="254" y="1035.0"/>
      <point x="254" y="756.0" type="qcurve" smooth="yes"/>
      <point x="254" y="744.0" type="line" smooth="yes"/>
      <point x="254" y="454.0"/>
      <point x="658" y="125"/>
      <point x="1049" y="125.0" type="qcurve" smooth="yes"/>
    </contour>
  </outline>
</glyph>
<glyph name="H" format="2">
  <advance width="1882"/>
  <unicode hex="0048"/>
  <outline>
    <contour>
      <point x="226" y="0" type="line"/>
      <point x="226" y="1500" type="line"/>
      <point x="386" y="1500" type="line"/>
      <point x="386" y="0" type="line"/>
    </contour>
    <contour>
      <point x="1496" y="0" type="line"/>
      <point x="1496" y="1500" type="line"/>
      <point x="1656" y="1500" type="line"/>
      <point x="1656" y="0" type="line"/>
    </contour>
    <contour>
      <point x="1576" y="719" type="line"/>
      <point x="306" y="719" type="line"/>
      <point x="306" y="867" type="line"/>
      <point x="1576" y="867" type="line"/>
    </contour>
  </outline>
</glyph>
<glyph name="P" format="2">
  <advance width="1404"/>
  <unicode hex="0050"/>
  <outline>
    <contour>
      <point x="226" y="0" type="line"/>
      <point x="226" y="1500" type="line"/>
      <point x="386" y="1500" type="line"/>
      <point x="386" y="0" type="line"/>
    </contour>
    <contour>
      <point x="947" y="583" type="qcurve" smooth="yes"/>
      <point x="306" y="583" type="line"/>
      <point x="306" y="722" type="line"/>
      <point x="879" y="722" type="line" smooth="yes"/>
      <point x="1044.0" y="722.0"/>
      <point x="1221" y="862"/>
      <point x="1221" y="1051" type="qcurve" smooth="yes"/>
      <point x="1221" y="1067" type="line" smooth="yes"/>
      <point x="1221" y="1221"/>
      <point x="1034.0" y="1355.0"/>
      <point x="899" y="1355" type="qcurve" smooth="yes"/>
      <point x="306" y="1355" type="line"/>
      <point x="306" y="1500" type="line"/>
      <point x="926" y="1500" type="line" smooth="yes"/>
      <point x="1113.0" y="1500.0"/>
      <point x="1380" y="1288"/>
      <point x="1380" y="1070" type="qcurve" smooth="yes"/>
      <point x="1380" y="1054" type="line" smooth="yes"/>
      <point x="1380" y="799"/>
      <point x="1095.0" y="581.0"/>
    </contour>
  </outline>
</glyph>
<glyph name="Q" format="2">
  <advance width="2102"/>
  <unicode hex="0051"/>
  <outline>
    <contour>
      <point x="1034" y="-15" type="line" smooth="yes"/>
      <point x="587" y="-15"/>
      <point x="90" y="379.0"/>
      <point x="90" y="742" type="qcurve" smooth="yes"/>
      <point x="90" y="748" type="line" smooth="yes"/>
      <point x="90" y="1116.0"/>
      <point x="600.0" y="1524.0"/>
      <point x="1041" y="1524" type="qcurve" smooth="yes"/>
      <point x="1053" y="1524" type="line" smooth="yes"/>
      <point x="1480" y="1524"/>
      <point x="2012.0" y="1123.0"/>
      <point x="2012" y="749" type="qcurve" smooth="yes"/>
      <point x="2012" y="746" type="line" smooth="yes"/>
      <point x="2012.0" y="376.0"/>
      <point x="1483" y="-15"/>
      <point x="1046" y="-15" type="qcurve" smooth="yes"/>
    </contour>
    <contour>
      <point x="1053" y="135" type="line" smooth="yes"/>
      <point x="1410" y="135"/>
      <point x="1848.0" y="449.0"/>
      <point x="1848" y="746" type="qcurve" smooth="yes"/>
      <point x="1848" y="748" type="line" smooth="yes"/>
      <point x="1848" y="1044"/>
      <point x="1414" y="1372"/>
      <point x="1053" y="1372" type="qcurve" smooth="yes"/>
      <point x="1041" y="1372" type="line" smooth="yes"/>
      <point x="676" y="1372"/>
      <point x="254" y="1040"/>
      <point x="254" y="745" type="qcurve" smooth="yes"/>
      <point x="254" y="742" type="line" smooth="yes"/>
      <point x="254" y="450.0"/>
      <point x="650" y="135"/>
      <point x="1041" y="135" type="qcurve" smooth="yes"/>
    </contour>
    <contour>
      <point x="1123" y="118" type="line"/>
      <point x="2086" y="103" type="line"/>
      <point x="2086" y="-52" type="line"/>
      <point x="1124" y="8" type="line"/>
    </contour>
  </outline>
</glyph>
<glyph name="Z" format="2">
  <advance width="1379"/>
  <unicode hex="005A"/>
  <outline>
    <contour>
      <point x="1344" y="0" type="line"/>
      <point x="34" y="0" type="line"/>
      <point x="29" y="155" type="line"/>
      <point x="1114" y="1350" type="line"/>
      <point x="64" y="1350" type="line"/>
      <point x="64" y="1500" type="line"/>
      <point x="1324" y="1500" type="line"/>
      <point x="1324" y="1355" type="line"/>
      <point x="232" y="150" type="line"/>
      <point x="1344" y="150" type="line"/>
    </contour>
  </outline>
</glyph>
<glyph name="backslash" format="2">
  <advance width="960"/>
  <unicode hex="005C"/>
  <outline>
    <contour>
      <point x="1080" y="0" type="line"/>
      <point x="900" y="0" type="line"/>
      <point x="-120" y="1500" type="line"/>
      <point x="60" y="1500" type="line"/>
    </contour>
  </outline>
</glyph>
<glyph name="bracketright" format="2">
  <advance width="984"/>
  <unicode hex="005D"/>
  <outline>
    <contour>
      <point x="726" y="-280" type="line"/>
      <point x="565" y="-280" type="line"/>
      <point x="565" y="1500" type="line"/>
      <point x="726" y="1500" type="line"/>
    </contour>
    <contour>
      <point x="88" y="-280" type="line"/>
      <point x="88" y="-135" type="line"/>
      <point x="645" y="-135" type="line"/>
      <point x="645" y="-280" type="line"/>
    </contour>
    <contour>
      <point x="88" y="1355" type="line"/>
      <point x="88" y="1500" type="line"/>
      <point x="650" y="1500" type="line"/>
      <point x="650" y="1355" type="line"/>
    </contour>
  </outline>
</glyph>
<glyph name="asciicircum" format="2">
  <advance width="1736"/>
  <unicode hex="005E"/>
  <outline>
    <contour>
      <point x="950.0" y="1513.0" type="line"/>
      <point x="1476.0" y="833.0" type="line"/>
      <point x="1274.0" y="833.0" type="line"/>
      <point x="878.0" y="1335.0" type="line"/>
      <point x="461.0" y="833.0" type="line"/>
      <point x="260.0" y="833.0" type="line"/>
      <point x="790.0" y="1513.0" type="line"/>
    </contour>
  </outline>
</glyph>
<glyph name="a" format="2">
  <advance width="1430"/>
  <unicode hex="0061"/>
  <outline>
    <contour>
      <point x="170" y="913" type="line"/>
      <point x="233" y="961"/>
      <point x="533" y="1040.0"/>
      <point x="732" y="1040.0" type="qcurve" smooth="yes"/>
      <point x="972" y="1040"/>
      <point x="1249" y="834"/>
      <point x="1249" y="621" type="qcurve" smooth="yes"/>
      <point x="1250" y="0" type="line"/>
      <point x="1090" y="0" type="line"/>
      <point x="1090.0" y="601" type="line" smooth="yes"/>
      <point x="1090.0" y="750.0"/>
      <point x="920" y="897"/>
      <point x="728" y="897.0" type="qcurve" smooth="yes"/>
      <point x="521" y="897.0"/>
      <point x="257" y="809"/>
      <point x="192" y="759" type="qcurve"/>
    </contour>
    <contour>
      <point x="1151" y="171" type="line"/>
      <point x="1101" y="96"/>
      <point x="799" y="-23"/>
      <point x="612" y="-23" type="qcurve" smooth="yes"/>
      <point x="369" y="-23"/>
      <point x="77" y="166"/>
      <point x="77" y="325" type="qcurve" smooth="yes"/>
      <point x="77" y="487"/>
      <point x="372.0" y="674.0"/>
      <point x="640" y="674.0" type="qcurve" smooth="yes"/>
      <point x="803" y="674"/>
      <point x="1081" y="640"/>
      <point x="1153" y="622" type="qcurve"/>
      <point x="1153" y="482" type="line"/>
      <point x="1048" y="514"/>
      <point x="760" y="538"/>
      <point x="660" y="538" type="qcurve" smooth="yes"/>
      <point x="472" y="538"/>
      <point x="236" y="447"/>
      <point x="236" y="332" type="qcurve" smooth="yes"/>
      <point x="236" y="217.0"/>
      <point x="428" y="114.0"/>
      <point x="633" y="114.0" type="qcurve" smooth="yes"/>
      <point x="809" y="114"/>
      <point x="1078" y="217"/>
      <point x="1151" y="283" type="qcurve"/>
    </contour>
  </outline>
</glyph>
<glyph name="b" format="2">
  <advance width="1623"/>
  <unicode hex="0062"/>
  <outline>
    <contour>
      <point x="200" y="0" type="line"/>
      <point x="200" y="1500" type="line"/>
      <point x="360" y="1500" type="line"/>
      <point x="360" y="0" type="line"/>
    </contour>
    <contour>
      <point x="282" y="569" type="line" smooth="yes"/>
      <point x="282" y="773"/>
      <point x="610" y="1040"/>
      <point x="860" y="1040.0" type="qcurve" smooth="yes"/>
      <point x="875" y="1040" type="line" smooth="yes"/>
      <point x="1178.0" y="1040.0"/>
      <point x="1547.0" y="745.0"/>
      <point x="1547" y="509" type="qcurve" smooth="yes"/>
      <point x="1547" y="494" type="line" smooth="yes"/>
      <point x="1547.0" y="258.0"/>
      <point x="1159" y="-26"/>
      <point x="871" y="-26" type="qcurve" smooth="yes"/>
      <point x="862" y="-26" type="line" smooth="yes"/>
      <point x="600" y="-26"/>
      <point x="282" y="222"/>
      <point x="282" y="419" type="qcurve" smooth="yes"/>
    </contour>
    <contour>
      <point x="360" y="514" type="qcurve" smooth="yes"/>
      <point x="360" y="487" type="line" smooth="yes"/>
      <point x="360" y="297"/>
      <point x="645" y="106"/>
      <point x="858" y="106.0" type="qcurve" smooth="yes"/>
      <point x="873" y="106" type="line" smooth="yes"/>
      <point x="1124.0" y="106.0"/>
      <point x="1389.0" y="316.0"/>
      <point x="1389" y="497" type="qcurve" smooth="yes"/>
      <point x="1389" y="504" type="line" smooth="yes"/>
      <point x="1389.0" y="685.0"/>
      <point x="1128.0" y="903.0"/>
      <point x="875" y="903" type="qcurve" smooth="yes"/>
      <point x="862" y="903.0" type="line" smooth="yes"/>
      <point x="649" y="903"/>
      <point x="360" y="725"/>
    </contour>
  </outline>
</glyph>
<glyph name="d" format="2">
  <advance width="1607"/>
  <unicode hex="0064"/>
  <outline>
    <contour>
      <point x="1407" y="0" type="line"/>
      <point x="1247" y="0" type="line"/>
      <point x="1247" y="1500" type="line"/>
      <point x="1407" y="1500" type="line"/>
    </contour>
    <contour>
      <point x="1326" y="519" type="qcurve" smooth="yes"/>
      <point x="1326" y="484" type="line" smooth="yes"/>
      <point x="1326.0" y="218.0"/>
      <point x="995" y="-25"/>
      <point x="732" y="-25" type="qcurve" smooth="yes"/>
      <point x="723" y="-25" type="line" smooth="yes"/>
      <point x="434" y="-25"/>
      <point x="60" y="258"/>
      <point x="60" y="493" type="qcurve" smooth="yes"/>
      <point x="60" y="506" type="line" smooth="yes"/>
      <point x="60" y="745"/>
      <point x="440" y="1040"/>
      <point x="728" y="1040" type="qcurve" smooth="yes"/>
      <point x="738" y="1040" type="line" smooth="yes"/>
      <point x="1000" y="1040"/>
      <point x="1326.0" y="775.0"/>
    </contour>
    <contour>
      <point x="1246" y="514" type="line" smooth="yes"/>
      <point x="1246.0" y="725.0"/>
      <point x="957" y="903"/>
      <point x="727" y="903" type="qcurve" smooth="yes"/>
      <point x="716" y="903" type="line" smooth="yes"/>
      <point x="469" y="903"/>
      <point x="218" y="685"/>
      <point x="218.0" y="506" type="qcurve" smooth="yes"/>
      <point x="218.0" y="494" type="line" smooth="yes"/>
      <point x="218" y="316"/>
      <point x="473" y="106"/>
      <point x="716" y="106" type="qcurve" smooth="yes"/>
      <point x="727" y="106" type="line" smooth="yes"/>
      <point x="962.0" y="106.0"/>
      <point x="1246.0" y="297.0"/>
      <point x="1246" y="487" type="qcurve" smooth="yes"/>
    </contour>
  </outline>
</glyph>
<glyph name="e" format="2">
  <advance width="1475"/>
  <unicode hex="0065"/>
  <outline>
    <contour>
      <point x="1415" y="329" type="line"/>
      <point x="1411" y="305" type="line" smooth="yes"/>
      <point x="1386" y="163"/>
      <point x="1055" y="-25"/>
      <point x="771" y="-25" type="qcurve" smooth="yes"/>
      <point x="761" y="-25" type="line" smooth="yes"/>
      <point x="463" y="-25"/>
      <point x="76" y="258"/>
      <point x="76" y="492" type="qcurve" smooth="yes"/>
      <point x="76" y="512" type="line" smooth="yes"/>
      <point x="76" y="745"/>
      <point x="452" y="1040"/>
      <point x="746" y="1040" type="qcurve" smooth="yes"/>
      <point x="767" y="1040" type="line" smooth="yes"/>
      <point x="1079" y="1040"/>
      <point x="1395" y="811"/>
      <point x="1404" y="635" type="qcurve" smooth="yes"/>
      <point x="1412" y="479" type="line"/>
      <point x="191" y="479" type="line"/>
      <point x="191" y="612" type="line"/>
      <point x="1236" y="612" type="line"/>
      <point x="1231" y="651" type="line" smooth="yes"/>
      <point x="1216" y="770"/>
      <point x="983" y="899"/>
      <point x="760" y="899" type="qcurve" smooth="yes"/>
      <point x="750" y="899" type="line" smooth="yes"/>
      <point x="508" y="899"/>
      <point x="244" y="685"/>
      <point x="244" y="506" type="qcurve" smooth="yes"/>
      <point x="244" y="493" type="line" smooth="yes"/>
      <point x="244" y="316"/>
      <point x="510" y="111"/>
      <point x="749" y="111" type="qcurve" smooth="yes"/>
      <point x="775" y="111" type="line" smooth="yes"/>
      <point x="989" y="111"/>
      <point x="1216" y="224"/>
      <point x="1245" y="311" type="qcurve" smooth="yes"/>
      <point x="1252" y="332" type="line"/>
    </contour>
  </outline>
</glyph>
<glyph name="f" format="2">
  <advance width="829"/>
  <unicode hex="0066"/>
  <outline>
    <contour>
      <point x="835" y="855" type="line"/>
      <point x="-5" y="855" type="line"/>
      <point x="-5" y="1000" type="line"/>
      <point x="835" y="1000" type="line"/>
    </contour>
    <contour>
      <point x="466" y="1208" type="qcurve" smooth="yes"/>
      <point x="466" y="0" type="line"/>
      <point x="306" y="0" type="line"/>
      <point x="306" y="1244" type="line" smooth="yes"/>
      <point x="306.0" y="1385.0"/>
      <point x="494" y="1553"/>
      <point x="624" y="1553.0" type="qcurve" smooth="yes"/>
      <point x="675.0" y="1553.0"/>
      <point x="840.0" y="1531.0"/>
      <point x="855" y="1526" type="qcurve"/>
      <point x="849" y="1370" type="line"/>
      <point x="829.0" y="1380.0"/>
      <point x="694" y="1401"/>
      <point x="650" y="1401" type="qcurve" smooth="yes"/>
      <point x="571" y="1401"/>
      <point x="466.0" y="1303.0"/>
    </contour>
  </outline>
</glyph>
<glyph name="l" format="2">
  <advance width="560"/>
  <unicode hex="006C"/>
  <outline>
    <contour>
      <point x="200" y="140" type="qcurve" smooth="yes"/>
      <point x="200" y="1500" type="line"/>
      <point x="360" y="1500" type="line"/>
      <point x="360" y="0" type="line"/>
      <point x="254" y="0"/>
      <point x="200.0" y="57.0"/>
    </contour>
    <contour>
      <point x="547" y="20" type="line"/>
      <point x="359" y="0" type="line"/>
      <point x="246" y="135" type="line"/>
      <point x="547" y="145" type="line"/>
    </contour>
  </outline>
</glyph>
<glyph name="n" format="2">
  <advance width="1469"/>
  <unicode hex="006E"/>
  <outline>
    <contour>
      <point x="200" y="0" type="line"/>
      <point x="200" y="1000" type="line"/>
      <point x="360" y="1000" type="line"/>
      <point x="360" y="0" type="line"/>
    </contour>
    <contour>
      <point x="300" y="823" type="line"/>
      <point x="372" y="918"/>
      <point x="659" y="1040"/>
      <point x="816" y="1040" type="qcurve" smooth="yes"/>
      <point x="1029" y="1040"/>
      <point x="1289" y="817"/>
      <point x="1289" y="622" type="qcurve" smooth="yes"/>
      <point x="1289" y="0" type="line"/>
      <point x="1129" y="0" type="line"/>
      <point x="1129" y="599" type="line" smooth="yes"/>
      <point x="1129" y="751"/>
      <point x="966" y="887"/>
      <point x="796" y="887" type="qcurve" smooth="yes"/>
      <point x="642" y="887"/>
      <point x="400" y="787"/>
      <point x="322" y="699" type="qcurve"/>
    </contour>
  </outline>
</glyph>
<glyph name="o" format="2">
  <advance width="1567"/>
  <unicode hex="006F"/>
  <outline>
    <contour>
      <point x="776" y="-25" type="line" smooth="yes"/>
      <point x="468" y="-25"/>
      <point x="76" y="258"/>
      <point x="76" y="492" type="qcurve" smooth="yes"/>
      <point x="76" y="508" type="line" smooth="yes"/>
      <point x="76" y="742"/>
      <point x="468" y="1040.0"/>
      <point x="772" y="1040" type="qcurve" smooth="yes"/>
      <point x="779" y="1040" type="line" smooth="yes"/>
      <point x="1100" y="1040.0"/>
      <point x="1491" y="745"/>
      <point x="1491.0" y="506" type="qcurve" smooth="yes"/>
      <point x="1491.0" y="496" type="line" smooth="yes"/>
      <point x="1491" y="258"/>
      <point x="1096" y="-25.0"/>
      <point x="783" y="-25" type="qcurve" smooth="yes"/>
    </contour>
    <contour>
      <point x="779" y="110" type="line" smooth="yes"/>
      <point x="1037.0" y="110.0"/>
      <point x="1323.0" y="326.0"/>
      <point x="1323.0" y="495" type="qcurve" smooth="yes"/>
      <point x="1323.0" y="505" type="line" smooth="yes"/>
      <point x="1323" y="675"/>
      <point x="1048" y="899.0"/>
      <point x="779" y="899" type="qcurve" smooth="yes"/>
      <point x="772" y="899" type="line" smooth="yes"/>
      <point x="500.0" y="899"/>
      <point x="244" y="684.0"/>
      <point x="244" y="506" type="qcurve" smooth="yes"/>
      <point x="244.0" y="497" type="line" smooth="yes"/>
      <point x="244" y="326.0"/>
      <point x="502.0" y="110"/>
      <point x="772" y="110" type="qcurve" smooth="yes"/>
    </contour>
  </outline>
</glyph>
<glyph name="r" format="2">
  <advance width="1013"/>
  <unicode hex="0072"/>
  <outline>
    <contour>
      <point x="200" y="0" type="line"/>
      <point x="200" y="1000" type="line"/>
      <point x="360" y="1000" type="line"/>
      <point x="360" y="0" type="line"/>
    </contour>
    <contour>
      <point x="300" y="823" type="line"/>
      <point x="407" y="918"/>
      <point x="732" y="1040"/>
      <point x="917" y="1040" type="qcurve" smooth="yes"/>
      <point x="936" y="1040"/>
      <point x="975" y="1039"/>
      <point x="993" y="1038" type="qcurve"/>
      <point x="993" y="887" type="line"/>
      <point x="976" y="888"/>
      <point x="938" y="890"/>
      <point x="917" y="890" type="qcurve" smooth="yes"/>
      <point x="721" y="890"/>
      <point x="448" y="797"/>
      <point x="333" y="709" type="qcurve"/>
    </contour>
  </outline>
</glyph>
<glyph name="s" format="2">
  <advance width="1387"/>
  <unicode hex="0073"/>
  <outline>
    <contour>
      <point x="1168.0" y="309" type="line" smooth="yes"/>
      <point x="1168.0" y="384.0"/>
      <point x="1025.0" y="450"/>
      <point x="685.0" y="469" type="qcurve" smooth="yes"/>
      <point x="312" y="490"/>
      <point x="81.0" y="630"/>
      <point x="81.0" y="754" type="qcurve" smooth="yes"/>
      <point x="81.0" y="765" type="line" smooth="yes"/>
      <point x="81.0" y="891"/>
      <point x="379.0" y="1040.0"/>
      <point x="672.0" y="1040" type="qcurve" smooth="yes"/>
      <point x="686.0" y="1040" type="line" smooth="yes"/>
      <point x="976.0" y="1040"/>
      <point x="1248" y="893"/>
      <point x="1264.0" y="755" type="qcurve" smooth="yes"/>
      <point x="1269.0" y="688" type="line"/>
      <point x="1092.0" y="688" type="line"/>
      <point x="1090.0" y="731.0" type="line" smooth="yes"/>
      <point x="1086.0" y="826"/>
      <point x="861" y="900"/>
      <point x="681.0" y="900" type="qcurve" smooth="yes"/>
      <point x="669.0" y="900" type="line" smooth="yes"/>
      <point x="469" y="900"/>
      <point x="260.0" y="831.0"/>
      <point x="260.0" y="767" type="qcurve" smooth="yes"/>
      <point x="260.0" y="759" type="line" smooth="yes"/>
      <point x="260" y="698"/>
      <point x="392.0" y="631"/>
      <point x="748.0" y="609" type="qcurve" smooth="yes"/>
      <point x="1102.0" y="587"/>
      <point x="1337.0" y="459"/>
      <point x="1337.0" y="330" type="qcurve" smooth="yes"/>
      <point x="1337.0" y="299" type="line" smooth="yes"/>
      <point x="1337.0" y="167"/>
      <point x="1023.0" y="-26.0"/>
      <point x="709.0" y="-26" type="qcurve" smooth="yes"/>
      <point x="704.0" y="-26" type="line" smooth="yes"/>
      <point x="357.0" y="-26"/>
      <point x="66.0" y="142"/>
      <point x="49.0" y="287.0" type="qcurve" smooth="yes"/>
      <point x="45.0" y="351" type="line"/>
      <point x="234.0" y="351" type="line"/>
      <point x="236.0" y="321.0" type="line" smooth="yes"/>
      <point x="243" y="213"/>
      <point x="481.0" y="110"/>
      <point x="701.0" y="110" type="qcurve" smooth="yes"/>
      <point x="709.0" y="110" type="line" smooth="yes"/>
      <point x="919.0" y="110.0"/>
      <point x="1168" y="213"/>
      <point x="1168.0" y="297" type="qcurve" smooth="yes"/>
    </contour>
  </outline>
</glyph>
<glyph name="t" format="2">
  <advance width="801"/>
  <unicode hex="0074"/>
  <outline>
    <contour>
      <point x="786" y="855" type="line"/>
      <point x="-4" y="855" type="line"/>
      <point x="-4" y="1000" type="line"/>
      <point x="786" y="1000" type="line"/>
    </contour>
    <contour>
      <point x="437.0" y="295" type="line" smooth="yes"/>
      <point x="437.0" y="210.0"/>
      <point x="517.0" y="131.0"/>
      <point x="578.0" y="131" type="qcurve" smooth="yes"/>
      <point x="633" y="131"/>
      <point x="699.0" y="150"/>
      <point x="726.0" y="166" type="qcurve"/>
      <point x="791.0" y="30" type="line"/>
      <point x="768.0" y="14"/>
      <point x="666.0" y="-18"/>
      <point x="579" y="-18" type="qcurve"/>
      <point x="451.0" y="-18"/>
      <point x="277" y="146.0"/>
      <point x="277.0" y="308" type="qcurve" smooth="yes"/>
      <point x="277" y="1233" type="line"/>
      <point x="437" y="1233" type="line"/>
    </contour>
  </outline>
</glyph>
<glyph name="z" format="2">
  <advance width="1215"/>
  <unicode hex="007A"/>
  <outline>
    <contour>
      <point x="1175" y="0" type="line"/>
      <point x="45" y="0" type="line"/>
      <point x="40" y="155" type="line"/>
      <point x="925" y="855" type="line"/>
      <point x="63" y="855" type="line"/>
      <point x="63" y="1000" type="line"/>
      <point x="1155" y="1000" type="line"/>
      <point x="1155" y="855" type="line"/>
      <point x="253" y="145" type="line"/>
      <point x="1175" y="145" type="line"/>
    </contour>
  </outline>
</glyph>
<glyph name="braceleft" format="2">
  <advance width="984"/>
  <unicode hex="007B"/>
  <outline>
    <contour>
      <point x="104" y="531" type="line"/>
      <point x="361" y="530"/>
      <point x="466" y="470"/>
      <point x="466.0" y="434.0" type="qcurve" smooth="yes"/>
      <point x="466" y="403"/>
      <point x="411" y="324"/>
      <point x="380" y="283" type="qcurve" smooth="yes"/>
      <point x="348" y="238"/>
      <point x="287" y="111"/>
      <point x="287" y="59" type="qcurve" smooth="yes"/>
      <point x="287" y="-92"/>
      <point x="636" y="-297"/>
      <point x="922" y="-305" type="qcurve"/>
      <point x="933" y="-141" type="line"/>
      <point x="677" y="-140"/>
      <point x="472" y="-33"/>
      <point x="472.0" y="34.0" type="qcurve" smooth="yes"/>
      <point x="472" y="90"/>
      <point x="517" y="191"/>
      <point x="546" y="234" type="qcurve" smooth="yes"/>
      <point x="579" y="282"/>
      <point x="653" y="394"/>
      <point x="653.0" y="460.0" type="qcurve" smooth="yes"/>
      <point x="653" y="504"/>
      <point x="556" y="583"/>
      <point x="491" y="609" type="qcurve"/>
      <point x="556" y="637"/>
      <point x="653" y="716"/>
      <point x="653.0" y="761" type="qcurve" smooth="yes"/>
      <point x="653" y="826"/>
      <point x="579" y="938"/>
      <point x="546" y="987" type="qcurve" smooth="yes"/>
      <point x="517" y="1029"/>
      <point x="472" y="1130"/>
      <point x="472.0" y="1187" type="qcurve" smooth="yes"/>
      <point x="472" y="1253"/>
      <point x="677" y="1360"/>
      <point x="933" y="1362" type="qcurve"/>
      <point x="922" y="1526" type="line"/>
      <point x="636" y="1517"/>
      <point x="287" y="1312"/>
      <point x="287" y="1162" type="qcurve" smooth="yes"/>
      <point x="287" y="1109"/>
      <point x="348" y="982"/>
      <point x="380" y="938" type="qcurve" smooth="yes"/>
      <point x="411" y="896"/>
      <point x="466" y="817"/>
      <point x="466.0" y="787" type="qcurve" smooth="yes"/>
      <point x="466" y="750"/>
      <point x="361" y="690"/>
      <point x="104" y="690" type="qcurve"/>
    </contour>
  </outline>
</glyph>
<glyph name="asciitilde" format="2">
  <advance width="1920"/>
  <unicode hex="007E"/>
  <outline>
    <contour>
      <point x="1018" y="799.0" type="qcurve" smooth="yes"/>
      <point x="934" y="844.0"/>
      <point x="787" y="912.0"/>
      <point x="650" y="912.0" type="qcurve" smooth="yes"/>
      <point x="490" y="912"/>
      <point x="265" y="770.0"/>
      <point x="222" y="715.0" type="qcurve"/>
      <point x="360" y="620.0" type="line"/>
      <point x="388" y="652.0"/>
      <point x="539" y="738"/>
      <point x="634" y="738.0" type="qcurve"/>
      <point x="729.0" y="738.0"/>
      <point x="827" y="702"/>
      <point x="881" y="674.0" type="qcurve" smooth="yes"/>
      <point x="958" y="633"/>
      <point x="1120" y="556.0"/>
      <point x="1258" y="556.0" type="qcurve" smooth="yes"/>
      <point x="1434" y="556.0"/>
      <point x="1665" y="700.0"/>
      <point x="1698" y="753.0" type="qcurve"/>
      <point x="1558" y="853.0" type="line"/>
      <point x="1532" y="822.0"/>
      <point x="1371" y="723.0"/>
      <point x="1277" y="723.0" type="qcurve" smooth="yes"/>
      <point x="1185" y="723"/>
      <point x="1082" y="764"/>
    </contour>
  </outline>
</glyph>
